{"title":"Taxi Driver 1976 DVD9rip English Klam","uid":5946494,"size":1786863217,"categoryP":"video","categoryS":"movies","magnet":"?xt=urn:btih:3833f54bcf14f31b6d3a0720eac60d340746be2f&amp;dn=Taxi+Driver+1976+DVD9rip+English+Klam&amp;tr=udp%3A%2F%2Ftracker.openbittorrent.com%3A80&amp;tr=udp%3A%2F%2Fopen.demonii.com%3A1337&amp;tr=udp%3A%2F%2Ftracker.coppersurfer.tk%3A6969&amp;tr=udp%3A%2F%2Fexodus.desync.com%3A6969","seeders":0,"leechers":1,"uploader":"Klambake","files":-1,"time":1289381746,"description":"With: Robert De Niro, Jodie Foster and Cybill Shepherd\n\nTravis Bickle is an ex-Marine and Vietnam War veteran living in New York City. As he suffers from insomnia, he spends his time working as a cabbie at night, watching porn movies at seedy cinemas during the day, or thinking about how the world, New York in particular, has deteriorated into a cesspool. He's a loner who has strong opinions about what is right and wrong with mankind. For Travis, the one bright spot in New York humanity is Betsy, a worker on the presidential nomination campaign of Senator Charles Palatine. Travis becomes obsessed with Betsy. After an incident with Betsy, Travis believes he has to do whatever he needs to to make the world a better place in his opinion. One of his priorities is to be the savior for Iris, a twelve year old runaway and prostitute who he believes wants out of the profession and under the thumb of her pimp and lover Matthew.\n\nGeneral:\n\nComplete name                    : Klambake\\Taxi\\Driver.avi\nFormat                           : AVI\nFormat/Info                      : Audio Video Interleave\nFile size                        : 1.66 GiB\nDuration                         : 1h 49mn\nOverall bit rate                 : 2 181 Kbps\n\nVideo:\n\nFormat                           : MPEG-4 Visual\nFormat profile                   : Simple@L3\nFormat settings, BVOP            : No\nFormat settings, QPel            : No\nFormat settings, GMC             : No warppoints\nFormat settings, Matrix          : Default (H.263)\nCodec ID                         : XVID\nCodec ID/Hint                    : XviD\nDuration                         : 1h 49mn\nBit rate                         : 1 978 Kbps\nWidth                            : 720 pixels\nHeight                           : 576 pixels\nDisplay aspect ratio             : 5:4\nFrame rate                       : 25.000 fps\nStandard                         : PAL\nColor space                      : YUV\nChroma subsampling               : 4:2:0\nBit depth                        : 8 bits\nScan type                        : Progressive\nBits/(Pixel*Frame)               : 0.191\nStream size                      : 1.51 GiB (91%)\nWriting library                  : XviD 1.1.2 (UTC 2006-11-01)\n\nAudio:\n\nFormat                           : AC-3\nFormat/Info                      : Audio Coding 3\nFormat profile                   : Dolby Digital\nMode extension                   : CM (complete main)\nCodec ID                         : 2000\nDuration                         : 1h 49mn\nBit rate mode                    : Constant\nBit rate                         : 192 Kbps\nChannel(s)                       : 2 channels\nChannel positions                : Front: L R\nSampling rate                    : 48.0 KHz\nBit depth                        : 16 bits\nStream size                      : 150 MiB (9%)\nAlignment                        : Aligned on interleaves\nInterleave, duration             : 32 ms (0.80 video frame)","torrent":{"xt":"urn:btih:3833f54bcf14f31b6d3a0720eac60d340746be2f","amp;dn":"Taxi+Driver+1976+DVD9rip+English+Klam","amp;tr":["udp%3A%2F%2Ftracker.openbittorrent.com%3A80","udp%3A%2F%2Fopen.demonii.com%3A1337","udp%3A%2F%2Ftracker.coppersurfer.tk%3A6969","udp%3A%2F%2Fexodus.desync.com%3A6969"],"infoHash":"3833f54bcf14f31b6d3a0720eac60d340746be2f","infoHashBuffer":{"type":"Buffer","data":[56,51,245,75,207,20,243,27,109,58,7,32,234,198,13,52,7,70,190,47]},"announce":[],"urlList":[]}}